<?xml version="1.0" encoding="UTF-8"?>
<!-- Created with Inkscape (http://www.inkscape.org/) -->
<svg width="1861.3" height="413.33" version="1.1" viewBox="0 0 1861.3 413.33" xmlns="http://www.w3.org/2000/svg" xmlns:cc="http://creativecommons.org/ns#" xmlns:dc="http://purl.org/dc/elements/1.1/" xmlns:rdf="http://www.w3.org/1999/02/22-rdf-syntax-ns#">
 <metadata>
  <rdf:RDF>
   <cc:Work rdf:about="">
    <dc:format>image/svg+xml</dc:format>
    <dc:type rdf:resource="http://purl.org/dc/dcmitype/StillImage"/>
    <dc:title/>
   </cc:Work>
  </rdf:RDF>
 </metadata>
 <g>
  <rect width="1861.3" height="413.33" fill="#ec1a23"/>
  <g transform="translate(0 -185.33)" fill="#fff">
   <path d="m1213.8 268.46h-38.011v228.4c7.1595 22.804 24.749 23.599 24.749 23.599h146.76v-20.506h-127.84s-4.6315-0.13258-5.6524-5.1265z"/>
   <path d="m1405.8 394.71h154.05v-20.506h-154.05l-7e-4 -80.118c1.0209-4.9939 5.6524-5.1265 5.6524-5.1265h148.4v-20.506h-167.32s-17.589 0.79493-24.749 23.599v204.8c7.1595 22.804 24.749 23.599 24.749 23.599h167.32v-20.506h-148.4s-4.6315-0.13258-5.6524-5.1265z"/>
   <rect x="84.242" y="268.46" width="36" height="252"/>
   <path d="m127.41 377.14 114.84 143.32h51.75l-120.9-149.31m-45.687 5.9955 134.77-108.68h34.397l-123.48 102.69"/>
   <path d="m362.49 394.71h154.05v-20.506h-154.05l-7.9e-4 -80.118c1.0209-4.9939 5.6524-5.1265 5.6524-5.1265h148.4v-20.506h-167.32s-17.589 0.79493-24.749 23.599v204.8c7.1595 22.804 24.749 23.599 24.749 23.599h167.32v-20.506h-148.4s-4.6315-0.13258-5.6524-5.1265z"/>
   <rect x="557.83" y="268.46" width="39.515" height="252"/>
   <path d="m762.79 288.96v231.49h-39.515v-231.49h-86.695v-20.506h218.78v20.506z"/>
   <path d="m1063.5 393.08h-132.02v127.37h-40.912v-252h40.912v104.12h132.02v-104.12h40.912v252h-40.912z"/>
   <path d="m1715.8 520.46-39.819-6e-5v-120.2l-92.101-131.8h43.544l76.933 104.37 75.922-104.37h23.182l-87.661 124.11z"/>
  </g>
 </g>
</svg>
